<?xml version="1.0" encoding="UTF-8"?>
<svg width="24px" height="24px" viewBox="0 0 24 24" version="1.1" xmlns="http://www.w3.org/2000/svg" xmlns:xlink="http://www.w3.org/1999/xlink">
    <!-- Generator: Sketch 52.6 (67491) - http://www.bohemiancoding.com/sketch -->
    <title>ic24-@2x</title>
    <desc>Created with Sketch.</desc>
    <g id="ic24-" stroke="none" stroke-width="1" fill="none" fill-rule="evenodd">
        <g id="ic_visibility_24px">
            <rect id="Rectangle" fill="#9B9B9B" opacity="0" x="0" y="0" width="24" height="24"></rect>
            <g id="Group">
                <polygon id="Shape" points="0 0 24 0 24 24 0 24"></polygon>
            </g>
        </g>
        <g id="ic_archive_24px">
            <g id="Group">
                <polygon id="Shape" points="0 0 24 0 24 24 0 24"></polygon>
                <path d="M20.54,5.23 L19.15,3.55 C18.88,3.21 18.47,3 18,3 L6,3 C5.53,3 5.12,3.21 4.84,3.55 L3.46,5.23 C3.17,5.57 3,6.02 3,6.5 L3,19 C3,20.1 3.9,21 5,21 L19,21 C20.1,21 21,20.1 21,19 L21,6.5 C21,6.02 20.83,5.57 20.54,5.23 L20.54,5.23 Z M12,17.5 L6.5,12 L10,12 L10,10 L14,10 L14,12 L17.5,12 L12,17.5 L12,17.5 Z M5.12,5 L5.93,4 L17.93,4 L18.87,5 L5.12,5 L5.12,5 Z" id="Shape" fill="#091924"></path>
            </g>
        </g>
    </g>
</svg>