<?xml version="1.0" encoding="UTF-8"?>
<svg width="50px" height="50px" viewBox="0 0 50 50" version="1.1" xmlns="http://www.w3.org/2000/svg" xmlns:xlink="http://www.w3.org/1999/xlink">
    <!-- Generator: Sketch 52.6 (67491) - http://www.bohemiancoding.com/sketch -->
    <title>icon_ios_setting</title>
    <desc>Created with Sketch.</desc>
    <g id="Page-1" stroke="none" stroke-width="1" fill="none" fill-rule="evenodd">
        <g id="-logos-copy" transform="translate(-657.000000, -935.000000)">
            <g id="icon_ios_setting" transform="translate(646.000000, 924.000000)">
                <rect id="@bounds" x="0" y="0" width="72" height="72"></rect>
                <path d="M27.1487526,49.3308102 L34.8452995,36 L27.1487526,22.6691898 C22.8396914,25.536 20,30.4363772 20,36 C20,41.5636228 22.8396914,46.464 27.1487526,49.3308102 Z M27.7598355,49.7177474 C27.9265917,49.8181323 28.0953281,49.9155625 28.2659722,50.0099656 L27.7598355,49.7177474 Z M28.8798962,50.3323815 C31.0242797,51.3997347 33.4420401,52 36,52 C44.5007053,52 51.4530616,45.3707297 51.969258,37 L36.5773503,37 L28.8798962,50.3323815 Z M28.8798962,21.6676185 L36.5773503,35 L51.969258,35 C51.4530616,26.6292703 44.5007053,20 36,20 C33.4420401,20 31.0242797,20.6002653 28.8798962,21.6676185 Z M28.2659722,21.9900344 C28.0953281,22.0844375 27.9265917,22.1818677 27.7598355,22.2822526 L28.2659744,21.9900332 Z M36,55 C25.5065898,55 17,46.4934102 17,36 C17,25.5065898 25.5065898,17 36,17 C46.4934102,17 55,25.5065898 55,36 C55,46.4934102 46.4934102,55 36,55 Z" id="Oval-17" fill="#FFFFFF"></path>
                <path d="M11.5,36 C11.5,35.4477153 11.9467713,34.931266 12.4872101,34.8481215 L17.0127899,34.1518785 C17.558011,34.0679983 18,34.4433532 18,35.0093689 L18,36.9906311 C18,37.5480902 17.5532287,37.931266 17.0127899,37.8481215 L12.4872101,37.1518785 C11.941989,37.0679983 11.5,36.5561352 11.5,36 Z M12.9775308,27.6205065 C13.1664233,27.1015286 13.7628871,26.7690298 14.2991705,26.8757405 L18.7899536,27.7693255 C19.3309825,27.8769805 19.6179374,28.3808679 19.4243486,28.9127487 L18.746717,30.7745262 C18.5560548,31.2983663 18.0051733,31.505629 17.525764,31.2426578 L13.5112392,29.0405639 C13.0275877,28.7752658 12.7873214,28.1431026 12.9775308,27.6205065 Z M17.2319111,20.2517036 C17.5869129,19.8286289 18.2611268,19.7201849 18.7285712,20.0038799 L22.6429028,22.3795134 C23.1144835,22.6657188 23.2117933,23.2373624 22.8479654,23.6709556 L21.5744346,25.1886905 C21.2161069,25.6157289 20.6275595,25.6220795 20.2670036,25.2109998 L17.2477447,21.7686601 C16.8839983,21.3539428 16.8744343,20.6777278 17.2319111,20.2517036 Z M23.75,14.7823776 C24.2282926,14.5062352 24.8989365,14.6349259 25.2411611,15.0613874 L28.1069151,18.6325329 C28.452168,19.0627682 28.3480957,19.6332193 27.8579117,19.9162272 L26.1420883,20.9068583 C25.6593146,21.1855878 25.104089,20.9902604 24.9058748,20.4806545 L23.246049,16.2132659 C23.0460808,15.6991505 23.2683728,15.0604452 23.75,14.7823776 Z M31.7456196,11.8722101 C32.289514,11.7763068 32.8756983,12.1266102 33.0514257,12.6444006 L34.52295,16.9803254 C34.7002325,17.5026977 34.4073307,18.0031516 33.849914,18.1014392 L31.8987516,18.4454817 C31.3497616,18.5422835 30.8948261,18.1688374 30.8828612,17.6221712 L30.782668,13.0444438 C30.7705972,12.4929402 31.1979334,11.9687819 31.7456196,11.8722101 Z M40.2543804,11.8722101 C40.7982747,11.9681133 41.2292969,12.4977776 41.217332,13.0444438 L41.1171388,17.6221712 C41.105068,18.1736748 40.6586651,18.5437693 40.1012484,18.4454817 L38.150086,18.1014392 C37.601096,18.0046374 37.3013225,17.4981158 37.47705,16.9803254 L38.9485743,12.6444006 C39.1258568,12.1220283 39.7066941,11.7756382 40.2543804,11.8722101 Z M48.25,14.7823776 C48.7282926,15.05852 48.9521652,15.7036599 48.753951,16.2132659 L47.0941252,20.4806545 C46.8941571,20.9947699 46.3480957,21.1898661 45.8579117,20.9068583 L44.1420883,19.9162272 C43.6593146,19.6374977 43.5508603,19.0589944 43.8930849,18.6325329 L46.7588389,15.0613874 C47.1040918,14.6311522 47.7683728,14.50431 48.25,14.7823776 Z M54.7680889,20.2517036 C55.1230907,20.6747782 55.1128112,21.3575804 54.7522553,21.7686601 L51.7329964,25.2109998 C51.36925,25.6257171 50.7893933,25.6222837 50.4255654,25.1886905 L49.1520346,23.6709556 C48.7937068,23.2439172 48.8896528,22.6632084 49.3570972,22.3795134 L53.2714288,20.0038799 C53.7430095,19.7176745 54.4106121,19.8256793 54.7680889,20.2517036 Z M59.0224692,27.6205065 C59.2113617,28.1394844 58.9681701,28.7775928 58.4887608,29.0405639 L54.474236,31.2426578 C53.9905845,31.507956 53.4468717,31.306407 53.253283,30.7745262 L52.5756514,28.9127487 C52.3849892,28.3889085 52.673763,27.8760363 53.2100464,27.7693255 L57.7008295,26.8757405 C58.2418585,26.7680855 58.8322598,27.0979104 59.0224692,27.6205065 Z M60.5,36 C60.5,36.5522847 60.0532287,37.068734 59.5127899,37.1518785 L54.9872101,37.8481215 C54.441989,37.9320017 54,37.5566468 54,36.9906311 L54,35.0093689 C54,34.4519098 54.4467713,34.068734 54.9872101,34.1518785 L59.5127899,34.8481215 C60.058011,34.9320017 60.5,35.4438648 60.5,36 Z M59.0224692,44.3794935 C58.8335767,44.8984714 58.2371129,45.2309702 57.7008295,45.1242595 L53.2100464,44.2306745 C52.6690175,44.1230195 52.3820626,43.6191321 52.5756514,43.0872513 L53.253283,41.2254738 C53.4439452,40.7016337 53.9948267,40.494371 54.474236,40.7573422 L58.4887608,42.9594361 C58.9724123,43.2247342 59.2126786,43.8568974 59.0224692,44.3794935 Z M54.7680889,51.7482964 C54.4130871,52.1713711 53.7388732,52.2798151 53.2714288,51.9961201 L49.3570972,49.6204866 C48.8855165,49.3342812 48.7882067,48.7626376 49.1520346,48.3290444 L50.4255654,46.8113095 C50.7838931,46.3842711 51.3724405,46.3779205 51.7329964,46.7890002 L54.7522553,50.2313399 C55.1160017,50.6460572 55.1255657,51.3222722 54.7680889,51.7482964 Z M48.25,57.2176224 C47.7717074,57.4937648 47.1010635,57.3650741 46.7588389,56.9386126 L43.8930849,53.3674671 C43.547832,52.9372318 43.6519043,52.3667807 44.1420883,52.0837728 L45.8579117,51.0931417 C46.3406854,50.8144122 46.895911,51.0097396 47.0941252,51.5193455 L48.753951,55.7867341 C48.9539192,56.3008495 48.7316272,56.9395548 48.25,57.2176224 Z M40.2543804,60.1277899 C39.710486,60.2236932 39.1243017,59.8733898 38.9485743,59.3555994 L37.47705,55.0196746 C37.2997675,54.4973023 37.5926693,53.9968484 38.150086,53.8985608 L40.1012484,53.5545183 C40.6502384,53.4577165 41.1051739,53.8311626 41.1171388,54.3778288 L41.217332,58.9555562 C41.2294028,59.5070598 40.8020666,60.0312181 40.2543804,60.1277899 Z M31.7456196,60.1277899 C31.2017253,60.0318867 30.7707031,59.5022224 30.782668,58.9555562 L30.8828612,54.3778288 C30.894932,53.8263252 31.3413349,53.4562307 31.8987516,53.5545183 L33.849914,53.8985608 C34.398904,53.9953626 34.6986775,54.5018842 34.52295,55.0196746 L33.0514257,59.3555994 C32.8741432,59.8779717 32.2933059,60.2243618 31.7456196,60.1277899 Z M23.75,57.2176224 C23.2717074,56.94148 23.0478348,56.2963401 23.246049,55.7867341 L24.9058748,51.5193455 C25.1058429,51.0052301 25.6519043,50.8101339 26.1420883,51.0931417 L27.8579117,52.0837728 C28.3406854,52.3625023 28.4491397,52.9410056 28.1069151,53.3674671 L25.2411611,56.9386126 C24.8959082,57.3688478 24.2316272,57.49569 23.75,57.2176224 Z M17.2319111,51.7482964 C16.8769093,51.3252218 16.8871888,50.6424196 17.2477447,50.2313399 L20.2670036,46.7890002 C20.63075,46.3742829 21.2106067,46.3777163 21.5744346,46.8113095 L22.8479654,48.3290444 C23.2062932,48.7560828 23.1103472,49.3367916 22.6429028,49.6204866 L18.7285712,51.9961201 C18.2569905,52.2823255 17.5893879,52.1743207 17.2319111,51.7482964 Z M12.9775308,44.3794935 C12.7886383,43.8605156 13.0318299,43.2224072 13.5112392,42.9594361 L17.525764,40.7573422 C18.0094155,40.492044 18.5531283,40.693593 18.746717,41.2254738 L19.4243486,43.0872513 C19.6150108,43.6110915 19.326237,44.1239637 18.7899536,44.2306745 L14.2991705,45.1242595 C13.7581415,45.2319145 13.1677402,44.9020896 12.9775308,44.3794935 Z" id="Shape" fill="#FFFFFF" fill-rule="nonzero"></path>
            </g>
        </g>
    </g>
</svg>