<?xml version="1.0" encoding="UTF-8"?>
<svg width="40px" height="39px" viewBox="0 0 40 39" version="1.1" xmlns="http://www.w3.org/2000/svg" xmlns:xlink="http://www.w3.org/1999/xlink">
    <!-- Generator: Sketch 52.6 (67491) - http://www.bohemiancoding.com/sketch -->
    <title>Combined Shape</title>
    <desc>Created with Sketch.</desc>
    <g id="Page-1" stroke="none" stroke-width="1" fill="none" fill-rule="evenodd">
        <g id="home" transform="translate(-32.000000, -819.000000)" fill="#D6F65D">
            <g id="icon_ios_setting" transform="translate(25.000000, 812.000000)">
                <path d="M25.8122628,41.8011392 C25.8071402,41.8211656 25.8011411,41.8412488 25.7942449,41.861353 L24.5930006,45.3632884 C24.4482802,45.7851855 23.9741273,46.0649495 23.5270364,45.9869527 C23.0830411,45.9094958 22.7311862,45.4817093 22.7409535,45.0401911 L22.8227438,41.3429624 C22.8231893,41.3228245 22.824385,41.3029904 22.826303,41.2834811 C22.0559203,41.0710311 21.3097071,40.8012189 20.5926617,40.4789897 C20.5814271,40.4952055 20.5694303,40.5111998 20.5566654,40.5269378 L18.2172743,43.4111947 C17.9354352,43.7586767 17.3931651,43.8611215 17,43.6365386 C16.609557,43.4135105 16.4268039,42.8924594 16.5886114,42.4808732 L17.9435712,39.0342915 C17.9512996,39.0146331 17.9596857,38.9955662 17.9686914,38.9771025 C17.3236612,38.5192635 16.7155956,38.0136761 16.1497764,37.4655659 C16.1326562,37.477806 16.1148106,37.4895202 16.0962472,37.5006668 L12.9008744,39.4193613 C12.5159106,39.6505168 11.9709289,39.5632861 11.6791111,39.219205 C11.3893138,38.8775063 11.3977052,38.326037 11.6920365,37.9940261 L14.1567376,35.2138 C14.17073,35.1980164 14.1851321,35.183004 14.1999045,35.1687608 C13.753057,34.5241365 13.3546634,33.8440552 13.0099189,33.1336569 C12.9907105,33.1389583 12.971059,33.1436006 12.9509825,33.1475531 L9.28503712,33.8692623 C8.84338085,33.9562105 8.35583593,33.6746447 8.20614758,33.2677476 C8.05194962,32.8485921 8.25047342,32.33322 8.64182791,32.1208298 L11.918991,30.3422956 C11.9369042,30.332574 11.9549273,30.3236528 11.9730277,30.3155184 C11.7787308,29.5642445 11.6404737,28.790772 11.5629233,27.9997185 C11.5422233,27.9982038 11.5213173,27.995855 11.5002367,27.9926463 L7.80588579,27.4303215 C7.36080736,27.3625752 7,26.9330108 7,26.5 C7,26.0539439 7.36471128,25.6368306 7.80588579,25.5696785 L11.5002367,25.0073537 C11.5213314,25.0041428 11.5422369,25.0017932 11.5629236,25.0002778 C11.6404742,24.2092244 11.7787316,23.4357521 11.9730286,22.6844783 C11.9549164,22.6763404 11.9368927,22.6674197 11.918991,22.6577044 L8.64182791,20.8791702 C8.24701034,20.6649005 8.05645924,20.1391495 8.20614758,19.7322524 C8.36034555,19.3130968 8.84725476,19.0445521 9.28503712,19.1307377 L12.9509825,19.8524469 C12.971072,19.8564019 12.9907233,19.8610434 13.0099204,19.86634 C13.3546651,19.1559416 13.7530589,18.4758604 14.1999066,17.8312361 C14.1851237,17.8169852 14.1707206,17.8019731 14.1567376,17.7862 L11.6920365,15.0059739 C11.3951006,14.671025 11.3872933,14.124876 11.6791111,13.780795 C11.9689085,13.4390962 12.5192872,13.3515107 12.9008744,13.5806387 L16.0962472,15.4993332 C16.1148233,15.5104874 16.132669,15.5222007 16.1497791,15.5344314 C16.7155984,14.9863214 17.3236641,14.4807342 17.9686944,14.0228953 C17.9596815,14.0044207 17.9512944,13.9853537 17.9435712,13.9657085 L16.5886114,10.5191268 C16.4253721,10.1038985 16.6068349,9.58804436 17,9.36346142 C17.390443,9.1404334 17.9379073,9.24437118 18.2172743,9.58880533 L20.5566654,12.4730622 C20.5694385,12.4888103 20.5814357,12.5048038 20.5926649,12.5210089 C21.3097104,12.1987799 22.0559236,11.9289678 22.8263064,11.7165179 C22.8243855,11.696997 22.823189,11.6771626 22.8227438,11.6570376 L22.7409535,7.95980888 C22.7310998,7.51438374 23.0799456,7.09104417 23.5270364,7.01304733 C23.9710318,6.93559051 24.4495496,7.21851512 24.5930006,7.63671162 L25.7942449,11.138647 C25.8011458,11.1587648 25.8071456,11.1788473 25.8122666,11.1988606 C26.2042876,11.1694899 26.6003789,11.1545373 27,11.1545373 C27.3996224,11.1545373 27.7957149,11.16949 28.1877372,11.1988608 C28.1928598,11.1788344 28.1988589,11.1587512 28.2057551,11.138647 L29.4069994,7.63671162 C29.5517198,7.21481452 30.0258727,6.9350505 30.4729636,7.01304733 C30.9169589,7.09050416 31.2688138,7.5182907 31.2590465,7.95980888 L31.1772562,11.6570376 C31.1768107,11.6771755 31.175615,11.6970096 31.173697,11.7165189 C31.9440797,11.9289689 32.6902929,12.1987811 33.4073383,12.5210103 C33.4185729,12.5047945 33.4305697,12.4888002 33.4433346,12.4730622 L35.7827257,9.58880533 C36.0645648,9.2413233 36.6068349,9.13887849 37,9.36346142 C37.390443,9.58648945 37.5731961,10.1075406 37.4113886,10.5191268 L36.0564288,13.9657085 C36.0487004,13.9853669 36.0403143,14.0044338 36.0313086,14.0228975 C36.6763388,14.4807365 37.2844044,14.9863239 37.8502236,15.5344341 C37.8673438,15.522194 37.8851894,15.5104798 37.9037528,15.4993332 L41.0991256,13.5806387 C41.4840894,13.3494832 42.0290711,13.4367139 42.3208889,13.780795 C42.6106862,14.1224937 42.6022948,14.673963 42.3079635,15.0059739 L39.8432624,17.7862 C39.82927,17.8019836 39.8148679,17.816996 39.8000955,17.8312392 C40.246943,18.4758635 40.6453366,19.1559448 40.9900811,19.8663431 C41.0092895,19.8610417 41.028941,19.8563994 41.0490175,19.8524469 L44.7149629,19.1307377 C45.1566191,19.0437895 45.6441641,19.3253553 45.7938524,19.7322524 C45.9480504,20.1514079 45.7495266,20.66678 45.3581721,20.8791702 L42.081009,22.6577044 C42.0630958,22.667426 42.0450727,22.6763472 42.0269723,22.6844816 C42.2212692,23.4357555 42.3595263,24.209228 42.4370767,25.0002815 C42.4577767,25.0017962 42.4786827,25.004145 42.4997633,25.0073537 L46.1941142,25.5696785 C46.6391926,25.6374248 47,26.0669892 47,26.5 C47,26.9460561 46.6352887,27.3631694 46.1941142,27.4303215 L42.4997633,27.9926463 C42.4786686,27.9958572 42.4577631,27.9982068 42.4370764,27.9997222 C42.3595258,28.7907756 42.2212684,29.5642479 42.0269714,30.3155217 C42.0450836,30.3236596 42.0631073,30.3325803 42.081009,30.3422956 L45.3581721,32.1208298 C45.7529897,32.3350995 45.9435408,32.8608505 45.7938524,33.2677476 C45.6396544,33.6869032 45.1527452,33.9554479 44.7149629,33.8692623 L41.0490175,33.1475531 C41.028928,33.1435981 41.0092767,33.1389566 40.9900796,33.13366 C40.6453349,33.8440584 40.2469411,34.5241396 39.8000934,35.1687639 C39.8148763,35.1830148 39.8292794,35.1980269 39.8432624,35.2138 L42.3079635,37.9940261 C42.6048994,38.328975 42.6127067,38.875124 42.3208889,39.219205 C42.0310915,39.5609038 41.4807128,39.6484893 41.0991256,39.4193613 L37.9037528,37.5006668 C37.8851767,37.4895126 37.867331,37.4777993 37.8502209,37.4655686 C37.2844016,38.0136786 36.6763359,38.5192658 36.0313056,38.9771047 C36.0403185,38.9955793 36.0487056,39.0146463 36.0564288,39.0342915 L37.4113886,42.4808732 C37.5746279,42.8961015 37.3931651,43.4119556 37,43.6365386 C36.609557,43.8595666 36.0620927,43.7556288 35.7827257,43.4111947 L33.4433346,40.5269378 C33.4305615,40.5111897 33.4185643,40.4951962 33.4073351,40.4789911 C32.6902896,40.8012201 31.9440764,41.0710322 31.1736936,41.2834821 C31.1756145,41.303003 31.176811,41.3228374 31.1772562,41.3429624 L31.2590465,45.0401911 C31.2689002,45.4856163 30.9200544,45.9089558 30.4729636,45.9869527 C30.0289682,46.0644095 29.5504504,45.7814849 29.4069994,45.3632884 L28.2057551,41.861353 C28.1988542,41.8412352 28.1928544,41.8211527 28.1877334,41.8011394 C27.7957124,41.8305101 27.3996211,41.8454627 27,41.8454627 C26.6003776,41.8454627 26.2042851,41.83051 25.8122628,41.8011392 Z M19.7744919,37.2667079 L26.0573873,26.5 L19.7744919,15.7332921 C16.256891,18.0486883 13.9387755,22.0065071 13.9387755,26.5 C13.9387755,30.9934929 16.256891,34.9513117 19.7744919,37.2667079 Z M20.2733351,37.5792201 L20.6865079,37.8152318 C20.5472066,37.7389866 20.4094626,37.6602965 20.2733351,37.5792201 Z M21.1876704,38.0756329 C22.9381875,38.937687 24.9118695,39.4224949 27,39.4224949 C33.9393513,39.4224949 39.6147442,34.0683254 40.036129,27.3076559 L27.4713063,27.3076559 L21.1876704,38.0756329 Z M21.1876704,14.9243671 L27.4713063,25.6923441 L40.036129,25.6923441 C39.6147442,18.9316746 33.9393513,13.5775051 27,13.5775051 C24.9118695,13.5775051 22.9381875,14.062313 21.1876704,14.9243671 Z M20.6865079,15.1847682 C20.5472066,15.2610134 20.4094626,15.3397035 20.2733351,15.4207799 L20.6865095,15.1847673 Z" id="Combined-Shape"></path>
            </g>
        </g>
    </g>
</svg>