<?xml version="1.0" encoding="UTF-8"?>
<svg width="40px" height="22px" viewBox="0 0 40 22" version="1.1" xmlns="http://www.w3.org/2000/svg" xmlns:xlink="http://www.w3.org/1999/xlink">
    <!-- Generator: Sketch 52.6 (67491) - http://www.bohemiancoding.com/sketch -->
    <title>Shape</title>
    <desc>Created with Sketch.</desc>
    <g id="Page-1" stroke="none" stroke-width="1" fill="none" fill-rule="evenodd">
        <g id="-icons" transform="translate(-67.000000, -652.000000)" fill="#D6F65D" fill-rule="nonzero">
            <path d="M88.1818182,659.333333 C86.6909091,655.061667 82.6545455,652 77.9090909,652 C71.8909091,652 67,656.931667 67,663 C67,669.068333 71.8909091,674 77.9090909,674 C82.6545455,674 86.6909091,670.938333 88.1818182,666.666667 L96.0909091,666.666667 L96.0909091,674 L103.363636,674 L103.363636,666.666667 L107,666.666667 L107,659.333333 L88.1818182,659.333333 Z M77.9090909,666.666667 C75.9090909,666.666667 74.2727273,665.016667 74.2727273,663 C74.2727273,660.983333 75.9090909,659.333333 77.9090909,659.333333 C79.9090909,659.333333 81.5454545,660.983333 81.5454545,663 C81.5454545,665.016667 79.9090909,666.666667 77.9090909,666.666667 Z" id="Shape"></path>
        </g>
    </g>
</svg>