<?xml version="1.0" encoding="UTF-8"?>
<svg width="40px" height="40px" viewBox="0 0 40 40" version="1.1" xmlns="http://www.w3.org/2000/svg" xmlns:xlink="http://www.w3.org/1999/xlink">
    <!-- Generator: Sketch 52.6 (67491) - http://www.bohemiancoding.com/sketch -->
    <title>Combined Shape</title>
    <desc>Created with Sketch.</desc>
    <g id="Page-1" stroke="none" stroke-width="1" fill="none" fill-rule="evenodd">
        <g id="home" transform="translate(-108.000000, -819.000000)" fill="#D6F65D" fill-rule="nonzero">
            <g id="icon_ios_user" transform="translate(101.000000, 812.000000)">
                <path d="M38.9467015,40.9946118 C42.8962628,37.6197957 45.4,32.6022874 45.4,27 C45.4,16.8379606 37.1620394,8.6 27,8.6 C16.8379606,8.6 8.6,16.8379606 8.6,27 C8.6,32.6050537 11.1062104,37.6247507 15.0591501,40.9996098 C15.0711782,40.9945623 15.0832747,40.9895433 15.09544,40.9845532 C17.3876637,40.0443022 19.7941264,40.0682167 22.1567505,38.9935174 C22.3562171,37.3869623 22.4780583,35.4554288 22.3992132,33.6651081 C22.0613006,33.1931919 21.7736788,32.7349135 21.5422987,32.3662207 C20.5759539,30.8263979 20.3393719,29.2591137 20.3218754,28.1834436 C20.0318427,27.9763817 19.7586853,27.7566776 19.5549425,27.5435012 C18.8026065,26.7563312 18.9769394,24.6492967 19.1912077,24.0833544 C19.2719894,23.8699875 19.4564581,23.7055398 19.6870245,23.6256645 C19.4977707,22.9520893 19.339689,22.1315304 19.339689,21.2697516 C19.339689,19.1228491 19.2360575,17.8883444 19.8199585,16.679029 C21.0376807,14.1570087 24.2,12.6600867 27.4,12.6600867 C27.4014322,12.781303 27.402762,12.9180767 27.403995,13.0693515 C27.4116643,12.920335 27.4163471,12.7836127 27.4178066,12.6600867 C29.8178066,12.6600867 32.9801259,14.1570087 34.1978481,16.679029 C34.7817492,17.8883444 34.6781177,19.1228491 34.6781177,21.2697516 C34.6781177,22.1315304 34.5200359,22.9520893 34.3307822,23.6256645 C34.5613486,23.7055398 34.7458173,23.8699875 34.8265989,24.0833544 C35.0408672,24.6492967 35.2152001,26.7563312 34.4628641,27.5435012 C34.2591213,27.7566776 33.9859639,27.9763817 33.6959312,28.1834436 C33.6784348,29.2591137 33.4418527,30.8263979 32.4755079,32.3662207 C32.2441278,32.7349135 31.9565061,33.1931919 31.6185934,33.6651081 C31.5397483,35.4554288 31.6615896,37.3869623 31.8610561,38.9935174 C34.2236802,40.0682167 36.6301429,40.0443022 38.9223666,40.9845532 C38.930509,40.9878932 38.9386206,40.9912461 38.9467015,40.9946118 Z M27,47 C15.954305,47 7,38.045695 7,27 C7,15.954305 15.954305,7 27,7 C38.045695,7 47,15.954305 47,27 C47,38.045695 38.045695,47 27,47 Z" id="Combined-Shape"></path>
            </g>
        </g>
    </g>
</svg>