<?xml version="1.0" encoding="UTF-8"?>
<svg width="30px" height="39px" viewBox="0 0 30 39" version="1.1" xmlns="http://www.w3.org/2000/svg" xmlns:xlink="http://www.w3.org/1999/xlink">
    <!-- Generator: Sketch 52.6 (67491) - http://www.bohemiancoding.com/sketch -->
    <title>Shape</title>
    <desc>Created with Sketch.</desc>
    <g id="Page-1" stroke="none" stroke-width="1" fill="none" fill-rule="evenodd">
        <g id="-icons" transform="translate(-192.000000, -449.000000)" fill="#D6F65D" fill-rule="nonzero">
            <path d="M207,478.714286 C209.0625,478.714286 210.75,477.042857 210.75,475 C210.75,472.957143 209.0625,471.285714 207,471.285714 C204.9375,471.285714 203.25,472.957143 203.25,475 C203.25,477.042857 204.9375,478.714286 207,478.714286 Z M218.25,462 L216.375,462 L216.375,458.285714 C216.375,453.16 212.175,449 207,449 C201.825,449 197.625,453.16 197.625,458.285714 L201.1875,458.285714 C201.1875,455.11 203.79375,452.528571 207,452.528571 C210.20625,452.528571 212.8125,455.11 212.8125,458.285714 L212.8125,462 L195.75,462 C193.6875,462 192,463.671429 192,465.714286 L192,484.285714 C192,486.328571 193.6875,488 195.75,488 L218.25,488 C220.3125,488 222,486.328571 222,484.285714 L222,465.714286 C222,463.671429 220.3125,462 218.25,462 Z M218.25,484.285714 L195.75,484.285714 L195.75,465.714286 L218.25,465.714286 L218.25,484.285714 Z" id="Shape"></path>
        </g>
    </g>
</svg>