<?xml version="1.0" encoding="UTF-8"?>
<svg width="209px" height="81px" viewBox="0 0 209 81" version="1.1" xmlns="http://www.w3.org/2000/svg" xmlns:xlink="http://www.w3.org/1999/xlink">
    <!-- Generator: Sketch 52.6 (67491) - http://www.bohemiancoding.com/sketch -->
    <title>logo-vault-white</title>
    <desc>Created with Sketch.</desc>
    <defs>
        <path d="M53,5 L43.6277372,75 L15.6423358,75 L5,5 L24.4452555,5 C26.6934419,24.2836048 28.2992653,40.5836271 29.2627737,53.9005559 C30.2262822,40.4395044 31.2335714,28.4775075 32.2846715,18.0142063 L33.5547445,5 L53,5 Z M84.3543233,5 L95,75 L75.9614662,75 L75.0338346,67.3676543 L68.3637218,67.3676543 L67.2593985,75 L48,75 L57.4530075,5 L84.3543233,5 Z M68.7659574,33.1870708 C67.4532369,32.4010159 66.5744681,30.9648964 66.5744681,29.3235294 C66.5744681,26.838248 68.5891867,24.8235294 71.0744681,24.8235294 C73.5597495,24.8235294 75.5744681,26.838248 75.5744681,29.3235294 C75.5744681,31.0606327 74.5901974,32.5678472 73.1489362,33.3178929 L73.1489362,48.2352941 L68.7659574,48.2352941 L68.7659574,33.1870708 Z M137,5 L137,52.1288566 C137,57.471896 136.829701,61.2250346 136.489097,63.3883848 C136.148493,65.551735 135.140888,67.7731283 133.466251,70.0526316 C131.791615,72.3321348 129.584818,74.0598852 126.845794,75.2359347 C124.106771,76.4119841 120.878177,77 117.159917,77 C113.044285,77 109.411231,76.3030923 106.260644,74.9092559 C103.110057,73.5154195 100.754248,71.7005556 99.1931464,69.4646098 C97.6320448,67.228664 96.7095895,64.8693409 96.4257529,62.3865699 C96.1419162,59.9037988 96,54.6842503 96,46.7277677 L96,5 L113.924195,5 L113.924195,57.8784029 C113.924195,60.9564582 114.087399,62.9237707 114.413811,63.7803993 C114.740223,64.6370279 115.400133,65.0653358 116.393562,65.0653358 C117.528908,65.0653358 118.259777,64.5934711 118.586189,63.6497278 C118.912601,62.7059844 119.075805,60.4773315 119.075805,56.9637024 L119.075805,5 L137,5 Z M159.655835,5 L159.655835,60.9913527 L171,60.9913527 L171,75 L141,75 L141,5 L159.655835,5 Z M204,5 L204,19.0086473 L193.130435,19.0086473 L193.130435,75 L174.826087,75 L174.826087,19.0086473 L164,19.0086473 L164,5 L204,5 Z" id="path-1"></path>
        <filter x="-3.0%" y="-8.3%" width="106.0%" height="116.7%" filterUnits="objectBoundingBox" id="filter-2">
            <feOffset dx="0" dy="0" in="SourceAlpha" result="shadowOffsetOuter1"></feOffset>
            <feGaussianBlur stdDeviation="2" in="shadowOffsetOuter1" result="shadowBlurOuter1"></feGaussianBlur>
            <feColorMatrix values="0 0 0 0 0   0 0 0 0 0   0 0 0 0 0  0 0 0 0.75 0" type="matrix" in="shadowBlurOuter1"></feColorMatrix>
        </filter>
    </defs>
    <g id="logo-vault-white" stroke="none" stroke-width="1" fill="none" fill-rule="evenodd">
        <g id="VAULT">
            <use fill="black" fill-opacity="1" filter="url(#filter-2)" xlink:href="#path-1"></use>
            <use fill="#FFFFFF" fill-rule="evenodd" xlink:href="#path-1"></use>
        </g>
    </g>
</svg>