<?xml version="1.0" encoding="UTF-8"?>
<svg width="195px" height="71px" viewBox="0 0 195 71" xmlns="http://www.w3.org/2000/svg">
    <g id="Page-1" stroke="none" stroke-width="1" fill="none" fill-rule="evenodd">
        <g id="-logos" transform="translate(-1008.000000, -66.000000)" fill="#D6F65D">
            <path d="M1056,66 L1046.62774,136 L1018.64234,136 L1008,66 L1027.44526,66 C1029.69344,85.2836048 1031.29927,101.583627 1032.26277,114.900556 C1033.22628,101.439504 1034.23357,89.4775075 1035.28467,79.0142063 L1036.55474,66 L1056,66 Z M1086.35432,66 L1097,136 L1077.96147,136 L1077.03383,128.367654 L1070.36372,128.367654 L1069.2594,136 L1050,136 L1059.45301,66 L1086.35432,66 Z M1071,94.1106766 C1069.54666,93.236056 1068.57447,91.6433264 1068.57447,89.8235294 C1068.57447,87.0621057 1070.81304,84.8235294 1073.57447,84.8235294 C1076.33589,84.8235294 1078.57447,87.0621057 1078.57447,89.8235294 C1078.57447,91.6842154 1077.5581,93.3075154 1076.05025,94.1685389 L1076,109 L1071,109 L1071,94.1106766 Z M1138,66 L1138,112.474289 C1138,117.74312 1137.8297,121.444131 1137.4891,123.577435 C1137.14849,125.710739 1136.14089,127.901279 1134.46625,130.149123 C1132.79162,132.396966 1130.58482,134.10072 1127.84579,135.260436 C1125.10677,136.420151 1121.87818,137 1118.15992,137 C1114.04429,137 1110.41123,136.312772 1107.26064,134.938294 C1104.11006,133.563816 1101.75425,131.774159 1100.19315,129.569268 C1098.63204,127.364377 1097.70959,125.037822 1097.42575,122.589534 C1097.14192,120.141246 1097,114.994191 1097,107.148215 L1097,66 L1114.9242,66 L1114.9242,118.143981 C1114.9242,121.179285 1115.0874,123.119274 1115.41381,123.964005 C1115.74022,124.808736 1116.40013,125.231095 1117.39356,125.231095 C1118.52891,125.231095 1119.25978,124.765784 1119.58619,123.835148 C1119.9126,122.904512 1120.0758,120.706813 1120.0758,117.241984 L1120.0758,66 L1138,66 Z M1160,66 L1160,122 L1171,122 L1171,136 L1141,136 L1141,66 L1160,66 Z M1203,66 L1203,80.0086473 L1192.13043,80.0086473 L1192.13043,136 L1173.82609,136 L1173.82609,80.0086473 L1163,80.0086473 L1163,66 L1203,66 Z" id="VAULT-Copy"></path>
        </g>
    </g>
</svg>
