<?xml version="1.0" encoding="UTF-8"?>
<svg width="221px" height="98px" viewBox="0 0 221 98" xmlns="http://www.w3.org/2000/svg">
    <g id="Page-1" stroke="none" stroke-width="1" fill="none" fill-rule="evenodd">
        <g id="-logos" transform="translate(-85.000000, -26.000000)" fill="#2A8D96">
            <path d="M85,26 L306,26 L306,124 L85,124 L85,26 Z M146,40 L126.554745,40 L125.284672,53.0142063 C124.233571,63.4775075 123.226282,75.4395044 122.262774,88.9005559 C121.299265,75.5836271 119.693442,59.2836048 117.445255,40 L98,40 L108.642336,110 L136.627737,110 L146,40 Z M176.354323,40 L149.453008,40 L140,110 L159.259398,110 L160.363722,102.367654 L167.033835,102.367654 L167.961466,110 L187,110 L176.354323,40 Z M161,68.1106766 C159.546659,67.236056 158.574468,65.6433264 158.574468,63.8235294 C158.574468,61.0621057 160.813044,58.8235294 163.574468,58.8235294 C166.335892,58.8235294 168.574468,61.0621057 168.574468,63.8235294 C168.574468,65.6834665 167.558916,67.3062086 166.052068,68.1674988 L166,85 L161,85 L161,68.1106766 Z M228,40 L210.075805,40 L210.075805,91.2419843 C210.075805,94.706813 209.912601,96.9045124 209.586189,97.8351482 C209.259777,98.765784 208.528908,99.231095 207.393562,99.231095 C206.400133,99.231095 205.740223,98.8087358 205.413811,97.9640048 C205.087399,97.1192739 204.924195,95.1792852 204.924195,92.1439806 L204.924195,40 L187,40 L187,81.1482154 C187,88.9941913 187.141916,94.1412461 187.425753,96.5895342 C187.70959,99.0378223 188.632045,101.364377 190.193146,103.569268 C191.754248,105.774159 194.110057,107.563816 197.260644,108.938294 C200.411231,110.312772 204.044285,111 208.159917,111 C211.878177,111 215.106771,110.420151 217.845794,109.260436 C220.584818,108.10072 222.791615,106.396966 224.466251,104.149123 C226.140888,101.901279 227.148493,99.7107386 227.489097,97.577435 C227.829701,95.4441313 228,91.7431197 228,86.4742892 L228,40 Z M250,40 L231,40 L231,110 L261,110 L261,96 L250,96 L250,40 Z M293,40 L253,40 L253,54.0086473 L263.826087,54.0086473 L263.826087,110 L282.130435,110 L282.130435,54.0086473 L293,54.0086473 L293,40 Z" id="Combined-Shape"></path>
        </g>
    </g>
</svg>
