<?xml version="1.0" encoding="UTF-8"?>
<svg width="24px" height="24px" viewBox="0 0 24 24" version="1.1" xmlns="http://www.w3.org/2000/svg" xmlns:xlink="http://www.w3.org/1999/xlink">
    <!-- Generator: Sketch 52.6 (67491) - http://www.bohemiancoding.com/sketch -->
    <title>ic24- copy@2x</title>
    <desc>Created with Sketch.</desc>
    <g id="ic24--copy" stroke="none" stroke-width="1" fill="none" fill-rule="evenodd">
        <g id="ic_visibility_24px">
            <rect id="Rectangle" fill="#9B9B9B" opacity="0" x="0" y="0" width="24" height="24"></rect>
            <g id="Group">
                <polygon id="Shape" points="0 0 24 0 24 24 0 24"></polygon>
            </g>
        </g>
        <path d="M10.2222222,6 L10.2222222,7.77777778 L5.76888889,7.77777778 L5.76888889,16.6666667 L9.33333333,16.6666667 C9.33333333,18.1422222 10.5333333,19.3333333 12,19.3333333 C13.4666667,19.3333333 14.6666667,18.1422222 14.6666667,16.6666667 L18.2222222,16.6666667 L18.2222222,7.77777778 L13.7777778,7.77777778 L13.7777778,6 L18.2222222,6 C19.2,6 20,6.8 20,7.77777778 L20,20.2222222 C20,21.2 19.2,22 18.2222222,22 L5.76888889,22 C4.78222222,22 4,21.2 4,20.2222222 L4.00888889,7.77777778 C4.00888889,6.8 4.78222222,6 5.76888889,6 L10.2222222,6 Z M14,5 L14,15 L10,15 L10,5 L8,5 L12,1 L16,5 L14,5 Z" id="Shape" fill="#091924"></path>
    </g>
</svg>