<?xml version="1.0" encoding="UTF-8"?>
<svg width="24px" height="24px" viewBox="0 0 24 24" version="1.1" xmlns="http://www.w3.org/2000/svg" xmlns:xlink="http://www.w3.org/1999/xlink">
    <!-- Generator: Sketch 52.6 (67491) - http://www.bohemiancoding.com/sketch -->
    <title>ic24-@2x</title>
    <desc>Created with Sketch.</desc>
    <g id="ic24-" stroke="none" stroke-width="1" fill="none" fill-rule="evenodd">
        <g id="ic_visibility_24px">
            <rect id="Rectangle" fill="#9B9B9B" opacity="0" x="0" y="0" width="24" height="24"></rect>
            <g id="Group">
                <polygon id="Shape" points="0 0 24 0 24 24 0 24"></polygon>
            </g>
        </g>
        <g id="ic_move_to_inbox_24px" transform="translate(0.000000, 1.000000)">
            <g id="Group">
                <polygon id="Shape" points="24 0 24 24 0 24 0 0"></polygon>
                <path d="M10,4 L10,6 L4.99,6 L4.99,16 L9,16 C9,17.66 10.35,19 12,19 C13.65,19 15,17.66 15,16 L19,16 L19,6 L14,6 L14,4 L19,4 C20.1,4 21,4.9 21,6 L21,20 C21,21.1 20.1,22 19,22 L4.99,22 C3.88,22 3,21.1 3,20 L3.01,6 C3.01,4.9 3.88,4 4.99,4 L10,4 Z M14,11 L14,1 L10,1 L10,11 L8,11 L12,15 L16,11 L14,11 Z" id="Shape" fill="#091924"></path>
            </g>
        </g>
    </g>
</svg>