<?xml version="1.0" encoding="UTF-8"?>
<svg width="122px" height="122px" viewBox="0 0 122 122" version="1.1" xmlns="http://www.w3.org/2000/svg" xmlns:xlink="http://www.w3.org/1999/xlink">
    <!-- Generator: Sketch 52.6 (67491) - http://www.bohemiancoding.com/sketch -->
    <title>Touch ID</title>
    <desc>Created with Sketch.</desc>
    <g id="Page-1" stroke="none" stroke-width="1" fill="none" fill-rule="evenodd" stroke-linecap="round">
        <g id="verify2" transform="translate(-147.000000, -408.000000)" stroke="#CCF437" stroke-width="3">
            <g id="Glyphs/Touch-ID" transform="translate(149.000000, 410.000000)">
                <g id="Touch-ID">
                    <path d="M116.678268,47.2817634 C110.246828,15.3843381 79.1789246,-5.25773657 47.2828201,1.17370373 M38.7350832,3.57110044 C11.7987553,13.3582946 -4.66283209,41.6239877 1.17387985,70.5717933 M117.849603,56.9913221 C117.740367,53.7783974 117.366215,50.5313938 116.709925,47.2758634 M1.20571343,70.5659813 C1.37654925,71.4117948 1.56411642,72.2496828 1.76929552,73.0796455" id="Stroke-1"></path>
                    <path d="M43.7164463,115.851784 C45.9923788,113.26138 48.0627065,110.499448 49.9088371,107.593913 M52.4949842,103.155042 C59.457584,90.0708749 62.0999733,74.5861468 58.9419687,58.9238284" id="Stroke-7"></path>
                    <path d="M51.964294,117.43928 C58.0836678,109.608647 62.6108268,100.57045 65.1838051,90.8679751 M66.6088659,84.2881437 C68.0695635,75.6387485 67.9992577,66.5806531 66.1617194,57.4684216 C65.3762269,53.4528993 61.4721,50.8582201 57.4636224,51.6666082 C53.4560254,52.4749963 50.8617866,56.3791231 51.6701746,60.388041 C55.7248836,80.2300933 49.2472119,99.7608545 36.1003388,113.242795" id="Stroke-9"></path>
                    <path d="M60.8085261,117.814634 C63.3933021,114.037384 65.6597908,110.043523 67.5786933,105.876991 M69.4785753,101.404607 C74.924633,87.4375901 76.5642343,71.7990985 73.38125,56.0130149 C71.7864888,48.0145522 64.0015709,42.8414851 56.0092724,44.4534179 M50.9330958,46.5092125 C45.9752478,49.7032692 43.2198396,55.7120392 44.4562799,61.8425672 C47.0839343,74.6349048 44.6851189,87.2829784 38.6408104,97.7731941 M36.1050554,101.745712 C34.0686667,104.637637 31.7357539,107.323047 29.1396157,109.751888" id="Stroke-11"></path>
                    <path d="M70.2022948,116.747439 C80.8170112,98.652491 85.0738172,76.7388343 80.6008246,54.5570358 L80.6113918,54.5526328 C78.1963545,42.5760731 66.5310858,34.8250582 54.5549664,37.2400955 C42.5784067,39.6551328 34.8273918,51.3204015 37.2428694,63.2974015 L37.2833769,63.2903567 C40.5495112,79.4902597 34.5125784,95.4052896 22.8512724,105.504857" id="Stroke-13"></path>
                    <path d="M80.0638366,113.92288 C88.9446575,95.6932007 92.1377022,74.5130813 87.8205754,53.1018052 C84.6063963,37.1374619 69.0607769,26.8084993 53.1008366,30.026641 C37.1400157,33.2452231 26.8106127,48.7912828 30.0287545,64.752544 C32.8572321,78.6021336 27.4816276,92.205156 17.2578963,100.579193" id="Stroke-15"></path>
                    <path d="M12.3765709,95.051994 C19.9776818,88.9456101 24.3071067,79.2586619 23.2817697,69.1030166 M22.2806947,62.710707 C20.3299048,44.0388924 32.8696287,26.5996351 51.6459142,22.8135388 C63.1582682,20.4921082 74.4979516,23.8113027 82.8020447,30.8687473 M86.9767134,35.0346257 C90.9079633,39.6421817 93.7559146,45.2855744 95.0382127,51.6442851 C96.8866907,60.8070482 97.4576768,69.9301708 96.8746903,78.8301251 M96.4409952,83.6790589 C95.4558653,92.3600607 93.3727905,100.791999 90.309847,108.799434" id="Stroke-17"></path>
                    <path d="M100.748004,100.427158 C103.865783,88.7328955 105.094131,76.3942273 104.145794,63.8331119 M103.440321,57.1758037 C103.122941,54.8516301 102.730094,52.5224382 102.259989,50.1908597 C97.4268321,26.2610761 74.1196306,10.7757776 50.1916082,15.6001284 M42.9994471,17.6904755 C23.2557458,25.2897177 11.2792998,46.2265902 15.6013172,67.6623448 C17.2757724,75.8496955 14.1729888,83.8957104 8.21751119,88.9419716" id="Stroke-19"></path>
                    <path d="M110.927749,86.6188246 C111.624742,81.0202433 111.923005,75.3281327 111.797483,69.5786623 M111.374418,61.8548072 C110.99215,57.4997476 110.364094,53.1213907 109.479607,48.7351007 C108.083677,41.8301698 105.369284,35.5279404 101.651623,30.037979 M96.7746075,23.9023976 C84.9642223,11.1690735 67.0059213,4.70351333 48.7373463,8.38702612 C31.5368426,11.855235 18.0761036,23.5099991 11.5942945,38.4762934 M8.9602486,46.1725877 C7.09647183,53.4530175 6.8024982,61.2562505 8.38751045,69.116959 C9.38126418,73.9562799 7.86531642,78.7211903 4.7444806,82.088153" id="Stroke-21"></path>
                </g>
            </g>
        </g>
    </g>
</svg>