<?xml version="1.0" encoding="UTF-8"?>
<svg width="50px" height="50px" viewBox="0 0 50 50" version="1.1" xmlns="http://www.w3.org/2000/svg" xmlns:xlink="http://www.w3.org/1999/xlink">
    <!-- Generator: Sketch 52.6 (67491) - http://www.bohemiancoding.com/sketch -->
    <title>icon_ios_timer_filled</title>
    <desc>Created with Sketch.</desc>
    <g id="Page-1" stroke="none" stroke-width="1" fill="none" fill-rule="evenodd">
        <g id="-logos-copy" transform="translate(-657.000000, -763.000000)">
            <g id="icon_ios_timer_filled" transform="translate(646.000000, 752.000000)">
                <rect id="@bounds" x="0" y="0" width="72" height="72"></rect>
                <path d="M33.3096238,37.3288646 C33.7996683,38.3190977 34.8203175,39 36,39 C37.6568542,39 39,37.6568542 39,36 C39,34.8203175 38.3190977,33.7996683 37.3288646,33.3096238 L26,26 L33.3096238,37.3288646 Z M37,15.0233902 L37,15 L35,15 L35,25 L37,25 L37,17.0258641 C47.0285647,17.545877 55,25.8420243 55,36 C55,46.4934102 46.4934102,55 36,55 C25.5065898,55 17,46.4934102 17,36 C17,30.7532949 19.1266474,26.0032949 22.5649712,22.5649712 L21.1507576,21.1507576 C17.3505051,24.9510101 15,30.2010101 15,36 C15,47.5979797 24.4020203,57 36,57 C47.5979797,57 57,47.5979797 57,36 C57,24.7372462 48.1336336,15.5453432 37,15.0233902 Z M36,61 C22.1928813,61 11,49.8071187 11,36 C11,22.1928813 22.1928813,11 36,11 C49.8071187,11 61,22.1928813 61,36 C61,49.8071187 49.8071187,61 36,61 Z" id="Oval-44" fill="#D6F65D"></path>
            </g>
        </g>
    </g>
</svg>