<?xml version="1.0" encoding="UTF-8"?>
<svg width="30px" height="40px" viewBox="0 0 30 40" version="1.1" xmlns="http://www.w3.org/2000/svg" xmlns:xlink="http://www.w3.org/1999/xlink">
    <!-- Generator: Sketch 52.6 (67491) - http://www.bohemiancoding.com/sketch -->
    <title>Shape</title>
    <desc>Created with Sketch.</desc>
    <g id="Page-1" stroke="none" stroke-width="1" fill="none" fill-rule="evenodd">
        <g id="-icons" transform="translate(-158.000000, -733.000000)" fill="#F44B49" fill-rule="nonzero">
            <path d="M184.25,746.333333 L182.375,746.333333 L182.375,742.52381 C182.375,737.266667 178.175,733 173,733 C167.825,733 163.625,737.266667 163.625,742.52381 L163.625,746.333333 L161.75,746.333333 C159.6875,746.333333 158,748.047619 158,750.142857 L158,769.190476 C158,771.285714 159.6875,773 161.75,773 L184.25,773 C186.3125,773 188,771.285714 188,769.190476 L188,750.142857 C188,748.047619 186.3125,746.333333 184.25,746.333333 Z M173,763.47619 C170.9375,763.47619 169.25,761.761905 169.25,759.666667 C169.25,757.571429 170.9375,755.857143 173,755.857143 C175.0625,755.857143 176.75,757.571429 176.75,759.666667 C176.75,761.761905 175.0625,763.47619 173,763.47619 Z M178.8125,746.333333 L167.1875,746.333333 L167.1875,742.52381 C167.1875,739.266667 169.79375,736.619048 173,736.619048 C176.20625,736.619048 178.8125,739.266667 178.8125,742.52381 L178.8125,746.333333 Z" id="Shape"></path>
        </g>
    </g>
</svg>