<?xml version="1.0" encoding="UTF-8"?>
<svg width="32px" height="32px" viewBox="0 0 32 32" xmlns="http://www.w3.org/2000/svg">
    <g id="Page-1" stroke="none" stroke-width="1" fill="none" fill-rule="evenodd">
        <g id="-icons" transform="translate(-233.000000, -388.000000)" fill="#F44B49" fill-rule="nonzero">
            <g id="icon_ios_addition" transform="translate(249.000000, 404.000000) rotate(45.000000) translate(-249.000000, -404.000000) translate(213.000000, 368.000000)">
                <path d="M35.2380952,35.2380952 L35.2380952,27.6190476 L36.7619048,27.6190476 L36.7619048,35.2380952 L44.3809524,35.2380952 L44.3809524,36.7619048 L36.7619048,36.7619048 L36.7619048,44.3809524 L35.2380952,44.3809524 L35.2380952,36.7619048 L27.6190476,36.7619048 L27.6190476,35.2380952 L35.2380952,35.2380952 Z M36,50.4761905 C43.9949792,50.4761905 50.4761905,43.9949792 50.4761905,36 C50.4761905,28.0050208 43.9949792,21.5238095 36,21.5238095 C28.0050208,21.5238095 21.5238095,28.0050208 21.5238095,36 C21.5238095,43.9949792 28.0050208,50.4761905 36,50.4761905 Z M36,52 C27.163444,52 20,44.836556 20,36 C20,27.163444 27.163444,20 36,20 C44.836556,20 52,27.163444 52,36 C52,44.836556 44.836556,52 36,52 Z" id="Combined-Shape"></path>
            </g>
        </g>
    </g>
</svg>
