<?xml version="1.0" encoding="UTF-8"?>
<svg width="30px" height="39px" viewBox="0 0 30 39" version="1.1" xmlns="http://www.w3.org/2000/svg" xmlns:xlink="http://www.w3.org/1999/xlink">
    <!-- Generator: Sketch 52.6 (67491) - http://www.bohemiancoding.com/sketch -->
    <title>Shape</title>
    <desc>Created with Sketch.</desc>
    <g id="Page-1" stroke="none" stroke-width="1" fill="none" fill-rule="evenodd">
        <g id="-icons" transform="translate(-230.000000, -449.000000)" fill="#F44B49" fill-rule="nonzero">
            <path d="M245.25,478.285714 C247.0625,478.714286 248.75,477.042857 248.75,475 C248.75,472.957143 247.0625,471.285714 245,471.285714 C242.9375,471.285714 241.25,472.957143 241.25,475 C241.25,477.042857 242.9375,478.714286 245.25,478.285714 Z M236,462 L236,459.154861 C236,458.852337 236.032329,458.560935 236.090828,458.285714 L235.625,458.285714 C235.625,453.16 239.825,449 245,449 C250.175,449 254.375,453.16 254.375,458.285714 L254.375,462 L256,462 C258.3125,462 260,463.671429 260,465.714286 L260,484.285714 C260,486.328571 258.3125,488 256.25,488 L233.75,488 C231.6875,488 230,486.328571 230,484.285714 L230,465.714286 C230,463.671429 231.6875,462 233.75,462 L236,462 Z M239.5625,462 L250.8125,462 L250.8125,458.285714 C250.8125,455.11 248.20625,452.528571 245,452.528571 C242.183616,452.528571 239.830188,454.520388 239.299497,457.15719 C239.463896,457.645195 239.5625,458.302106 239.5625,459.154861 L239.5625,462 Z M256.25,484.285714 L256.25,465.714286 L233.75,465.714286 L233.75,484.285714 L256.25,484.285714 Z" id="Shape"></path>
        </g>
    </g>
</svg>