<?xml version="1.0" encoding="UTF-8"?>
<svg width="23px" height="35px" viewBox="0 0 23 35" version="1.1" xmlns="http://www.w3.org/2000/svg" xmlns:xlink="http://www.w3.org/1999/xlink">
    <!-- Generator: Sketch 52.6 (67491) - http://www.bohemiancoding.com/sketch -->
    <title>Shape</title>
    <desc>Created with Sketch.</desc>
    <g id="Page-1" stroke="none" stroke-width="1" fill="none" fill-rule="evenodd">
        <g id="-icons" transform="translate(-291.000000, -780.000000)" fill="#FFFFFF" fill-rule="nonzero">
            <g id="icon_ios_more_filled" transform="translate(302.500000, 797.500000) rotate(90.000000) translate(-302.500000, -797.500000) translate(285.000000, 786.000000)">
                <path d="M3.80434783,23 L3.80434783,23 C1.70326454,23 0,21.2837582 0,19.1666667 C0,17.0495751 1.70326454,15.3333333 3.80434783,15.3333333 C5.90543111,15.3333333 7.60869565,17.0495751 7.60869565,19.1666667 C7.60869565,21.2837582 5.90543111,23 3.80434783,23 L3.80434783,23 Z M3.80434783,7.66666667 L3.80434783,7.66666667 C1.70326454,7.66666667 0,5.95042487 0,3.83333333 C0,1.71624179 1.70326454,0 3.80434783,0 C5.90543111,0 7.60869565,1.71624179 7.60869565,3.83333333 C7.60869565,5.95042487 5.90543111,7.66666667 3.80434783,7.66666667 L3.80434783,7.66666667 Z M17.5,23 L17.5,23 C15.3989167,23 13.6956522,21.2837582 13.6956522,19.1666667 C13.6956522,17.0495751 15.3989167,15.3333333 17.5,15.3333333 C19.6010833,15.3333333 21.3043478,17.0495751 21.3043478,19.1666667 C21.3043478,21.2837582 19.6010833,23 17.5,23 L17.5,23 Z M17.5,7.66666667 L17.5,7.66666667 C15.3989167,7.66666667 13.6956522,5.95042487 13.6956522,3.83333333 C13.6956522,1.71624179 15.3989167,0 17.5,0 C19.6010833,0 21.3043478,1.71624179 21.3043478,3.83333333 C21.3043478,5.95042487 19.6010833,7.66666667 17.5,7.66666667 L17.5,7.66666667 Z M31.1956522,23 L31.1956522,23 C29.0945689,23 27.3913043,21.2837582 27.3913043,19.1666667 C27.3913043,17.0495751 29.0945689,15.3333333 31.1956522,15.3333333 C33.2967355,15.3333333 35,17.0495751 35,19.1666667 C35,21.2837582 33.2967355,23 31.1956522,23 L31.1956522,23 Z M31.1956522,7.66666667 L31.1956522,7.66666667 C29.0945689,7.66666667 27.3913043,5.95042487 27.3913043,3.83333333 C27.3913043,1.71624179 29.0945689,0 31.1956522,0 C33.2967355,0 35,1.71624179 35,3.83333333 C35,5.95042487 33.2967355,7.66666667 31.1956522,7.66666667 L31.1956522,7.66666667 Z" id="Shape"></path>
            </g>
        </g>
    </g>
</svg>