<svg width="362px" height="139px" viewBox="0 0 362 139" version="1.1" xmlns="http://www.w3.org/2000/svg" xmlns:xlink="http://www.w3.org/1999/xlink">
  <!-- Generator: Sketch 53 (72520) - https://sketchapp.com -->
  <title>Group 23</title>
  <desc>Created with Sketch.</desc>
  <defs>
    <polygon id="path-1" points="0.418813105 0.423556942 41.7760424 0.423556942 41.7760424 43.2352808 0.418813105 43.2352808"></polygon>
    <polygon id="path-3" points="5.6474259e-05 0.423556942 70.569161 0.423556942 70.569161 124.371397 5.6474259e-05 124.371397"></polygon>
    <polygon id="path-5" points="0.508268331 0.405654602 55.6452168 0.405654602 55.6452168 47.4383775 0.508268331 47.4383775"></polygon>
    <polygon id="path-7" points="0.542491732 0.405936973 51.2119875 0.405936973 51.2119875 45.8428668 0.542491732 45.8428668"></polygon>
  </defs>
  <g id="Page-1" stroke="none" stroke-width="1" fill="none" fill-rule="evenodd">
    <g id="Home-1" transform="translate(-100.000000, -5314.000000)">
      <g id="Footer" transform="translate(100.000000, 5164.000000)">
        <g id="Group-23" transform="translate(0.000000, 150.000000)">
          <path d="M156.983474,11.401814 C158.983228,14.7405722 160.134738,18.6446378 160.134738,22.819215 C160.134738,35.109708 150.170984,45.0734615 137.880491,45.0734615 C134.857989,45.0734615 131.977237,44.4680574 129.34949,43.37641 C133.237178,49.8669966 140.335992,54.2138203 148.452473,54.2138203 C160.742966,54.2138203 170.706719,44.2500668 170.706719,31.959009 C170.706719,22.6910184 165.040092,14.7490434 156.983474,11.401814" id="Fill-1" fill="#00A8A1"></path>
          <g id="Group-5" transform="translate(115.207488, 0.141186)">
            <mask id="mask-2" fill="white">
              <use xlink:href="#path-1"></use>
            </mask>
            <g id="Clip-4"></g>
            <path d="M33.2450409,9.56363339 C36.268108,9.56363339 39.1482952,10.1690374 41.7760424,11.2606849 C37.8883544,4.77009828 30.7895401,0.423274571 22.6730596,0.423274571 C10.3825666,0.423274571 0.418813105,10.3870281 0.418813105,22.6780858 C0.418813105,31.9455117 6.08544025,39.8880515 14.142058,43.2352808 C12.1423045,39.8965226 10.9907944,35.9924571 10.9907944,31.8178799 C10.9907944,19.5273869 20.9545479,9.56363339 33.2450409,9.56363339" id="Fill-3" fill="#00A8A1" mask="url(#mask-2)"></path>
          </g>
          <polygon id="Fill-6" fill="#00A8A1" points="115.626301 136.907609 59.4378022 12.9596 45.0571969 12.9596 95.6265073 124.512639 70.5694434 124.512639 76.1886321 136.907609"></polygon>
          <g id="Group-10" transform="translate(0.000000, 0.141186)">
            <mask id="mask-4" fill="white">
              <use xlink:href="#path-3"></use>
            </mask>
            <g id="Clip-9"></g>
            <polygon id="Fill-8" fill="#00A8A1" mask="url(#mask-4)" points="45.0569145 12.8183579 39.4377257 0.42338752 5.6474259e-05 0.42338752 56.187991 124.371397 70.569161 124.371397 19.9998505 12.8183579"></polygon>
          </g>
          <polygon id="Fill-11" fill="#00A8A1" points="102.02425 136.907609 81.9222378 91.4706796 94.9406839 91.4706796 111.851901 132.504311 128.763118 91.4706796 141.84538 91.4706796 121.743367 136.907609"></polygon>
          <path d="M161.18211,120.18784 L182.049913,120.18784 L171.647919,95.1720025 L161.18211,120.18784 Z M141.271545,136.907609 L160.990662,91.5344955 L182.305177,91.5344955 L201.832846,136.907609 L188.878216,136.907609 L185.049261,127.909566 L158.246578,127.909566 L154.289991,136.907609 L141.271545,136.907609 Z" id="Fill-13" fill="#00A8A1"></path>
          <g id="Group-17" transform="translate(207.260530, 91.064743)">
            <mask id="mask-6" fill="white">
              <use xlink:href="#path-5"></use>
            </mask>
            <g id="Clip-16"></g>
            <path d="M52.0715257,35.6642287 C49.688312,39.3875766 46.412805,42.2801881 42.2438752,44.3431928 C38.0738159,46.4061975 33.3305429,47.438547 28.0129267,47.438547 C22.694181,47.438547 17.9401778,46.4061975 13.7503526,44.3431928 C9.55939782,42.2801881 6.30478627,39.3875766 3.9859532,35.6642287 C1.66712012,31.9420103 0.508268331,27.6341538 0.508268331,22.7417888 L0.508268331,0.405654602 L12.8885554,0.405654602 L12.8885554,22.8050399 C12.8885554,25.7405719 13.54761,28.3999448 14.8668487,30.782029 C16.1849579,33.1652427 18.0039938,35.0159042 20.3233916,36.3345782 C22.6416599,37.6532521 25.225922,38.3123067 28.0767426,38.3123067 C30.9264337,38.3123067 33.5112605,37.6323566 35.8306583,36.2701975 C38.1489267,34.9097326 39.9781279,33.0585064 41.3182621,30.7187778 C42.658961,28.3790493 43.3287457,25.7625969 43.3287457,22.8688559 L43.3287457,0.405654602 L55.6452168,0.405654602 L55.6452168,22.7417888 C55.6452168,27.6341538 54.45361,31.9420103 52.0715257,35.6642287" id="Fill-15" fill="#00A8A1" mask="url(#mask-6)"></path>
          </g>
          <polygon id="Fill-18" fill="#00A8A1" points="277.455098 136.907609 277.455098 91.4706796 289.835385 91.4706796 289.835385 127.52667 318.042018 127.52667 318.042018 136.907609"></polygon>
          <g id="Group-22" transform="translate(310.608424, 91.064743)">
            <mask id="mask-8" fill="white">
              <use xlink:href="#path-7"></use>
            </mask>
            <g id="Clip-21"></g>
            <polygon id="Fill-20" fill="#00A8A1" mask="url(#mask-8)" points="19.7510814 45.8428668 19.7510814 9.78687613 0.542491732 9.78687613 0.542491732 0.405936973 51.2123264 0.405936973 51.2123264 9.78687613 32.0675526 9.78687613 32.0675526 45.8428668"></polygon>
          </g>
        </g>
      </g>
    </g>
  </g>
</svg>
