<?xml version="1.0" encoding="UTF-8"?>
<svg width="199px" height="71px" viewBox="0 0 199 71" xmlns="http://www.w3.org/2000/svg">
    <g id="Page-1" stroke="none" stroke-width="1" fill="none" fill-rule="evenodd">
        <g id="splash-copy" transform="translate(-184.000000, -247.000000)" fill="#D6F65D">
            <path d="M232,247 L222.627737,317 L194.642336,317 L184,247 L203.445255,247 C205.693442,266.283605 207.299265,282.583627 208.262774,295.900556 C209.226282,282.439504 210.233571,270.477508 211.284672,260.014206 L212.554745,247 L232,247 Z M263.354323,247 L274,317 L254.961466,317 L254.033835,309.367654 L247.363722,309.367654 L246.259398,317 L227,317 L236.453008,247 L263.354323,247 Z M247.765957,275.187071 C246.453237,274.401016 245.574468,272.964896 245.574468,271.323529 C245.574468,268.838248 247.589187,266.823529 250.074468,266.823529 C252.559749,266.823529 254.574468,268.838248 254.574468,271.323529 C254.574468,273.060633 253.590197,274.567847 252.148936,275.317893 L252.148936,290.235294 L247.765957,290.235294 L247.765957,275.187071 Z M316,247 L316,293.474289 C316,298.74312 315.829701,302.444131 315.489097,304.577435 C315.148493,306.710739 314.140888,308.901279 312.466251,311.149123 C310.791615,313.396966 308.584818,315.10072 305.845794,316.260436 C303.106771,317.420151 299.878177,318 296.159917,318 C292.044285,318 288.411231,317.312772 285.260644,315.938294 C282.110057,314.563816 279.754248,312.774159 278.193146,310.569268 C276.632045,308.364377 275.70959,306.037822 275.425753,303.589534 C275.141916,301.141246 275,295.994191 275,288.148215 L275,247 L292.924195,247 L292.924195,299.143981 C292.924195,302.179285 293.087399,304.119274 293.413811,304.964005 C293.740223,305.808736 294.400133,306.231095 295.393562,306.231095 C296.528908,306.231095 297.259777,305.765784 297.586189,304.835148 C297.912601,303.904512 298.075805,301.706813 298.075805,298.241984 L298.075805,247 L316,247 Z M338.655835,247 L338.655835,302.991353 L350,302.991353 L350,317 L320,317 L320,247 L338.655835,247 Z M383,247 L383,261.008647 L372.130435,261.008647 L372.130435,317 L353.826087,317 L353.826087,261.008647 L343,261.008647 L343,247 L383,247 Z" id="VAULT"></path>
        </g>
    </g>
</svg>
