<?xml version="1.0" encoding="UTF-8"?>
<svg width="30px" height="46px" viewBox="0 0 30 46" version="1.1" xmlns="http://www.w3.org/2000/svg" xmlns:xlink="http://www.w3.org/1999/xlink">
    <!-- Generator: Sketch 52.6 (67491) - http://www.bohemiancoding.com/sketch -->
    <title>Shape</title>
    <desc>Created with Sketch.</desc>
    <g id="Page-1" stroke="none" stroke-width="1" fill="none" fill-rule="evenodd" opacity="0.161063058">
        <g id="-icons" transform="translate(-287.000000, -774.000000)" fill="#FFFFFF" fill-rule="nonzero">
            <g id="icon_ios_more_filled" transform="translate(302.000000, 797.000000) rotate(90.000000) translate(-302.000000, -797.000000) translate(279.000000, 782.000000)">
                <path d="M5,30 L5,30 C2.23857625,30 0,27.7614237 0,25 C0,22.2385763 2.23857625,20 5,20 C7.76142375,20 10,22.2385763 10,25 C10,27.7614237 7.76142375,30 5,30 L5,30 Z M5,10 L5,10 C2.23857625,10 0,7.76142375 0,5 C0,2.23857625 2.23857625,0 5,0 C7.76142375,0 10,2.23857625 10,5 C10,7.76142375 7.76142375,10 5,10 L5,10 Z M23,30 L23,30 C20.2385763,30 18,27.7614237 18,25 C18,22.2385763 20.2385763,20 23,20 C25.7614237,20 28,22.2385763 28,25 C28,27.7614237 25.7614237,30 23,30 L23,30 Z M23,10 L23,10 C20.2385763,10 18,7.76142375 18,5 C18,2.23857625 20.2385763,0 23,0 C25.7614237,0 28,2.23857625 28,5 C28,7.76142375 25.7614237,10 23,10 L23,10 Z M41,30 L41,30 C38.2385763,30 36,27.7614237 36,25 C36,22.2385763 38.2385763,20 41,20 C43.7614237,20 46,22.2385763 46,25 C46,27.7614237 43.7614237,30 41,30 L41,30 Z M41,10 L41,10 C38.2385763,10 36,7.76142375 36,5 C36,2.23857625 38.2385763,0 41,0 C43.7614237,0 46,2.23857625 46,5 C46,7.76142375 43.7614237,10 41,10 L41,10 Z" id="Shape" opacity="0.722772507"></path>
            </g>
        </g>
    </g>
</svg>